<mxfile host="app.diagrams.net" modified="2024-04-26T19:10:23.740Z" agent="Mozilla/5.0 (Windows NT 10.0; Win64; x64; rv:125.0) Gecko/20100101 Firefox/125.0" etag="i3QOVRoBEKf8pMdA9HRA" version="24.3.1" type="github">
  <diagram name="Page-1" id="byOk9xRa5CcR8panvYQZ">
    <mxGraphModel dx="1050" dy="538" grid="1" gridSize="10" guides="1" tooltips="1" connect="1" arrows="1" fold="1" page="1" pageScale="1" pageWidth="827" pageHeight="1169" math="0" shadow="0">
      <root>
        <mxCell id="0" />
        <mxCell id="1" parent="0" />
      </root>
    </mxGraphModel>
  </diagram>
</mxfile>
